<svg width="186" height="18" viewBox="0 0 186 18" fill="none" xmlns="http://www.w3.org/2000/svg">
    <path d="M9.28435 4.18182V6.81818H3.39483V9.68182H8.43565V12.3182H3.39483V17.8182H0V4.18182H9.28435ZM17.2806 4.18182C19.8583 4.18182 21.7603 6.04545 21.7603 8.36364C21.7603 10.1928 20.5549 11.6716 18.8303 12.177L18.7321 12.2045L22.9366 17.8182H19.2327L15.5287 12.5455H14.2023V17.8182H10.8988V4.18182H17.2806ZM16.7801 6.84091H14.2023V10.0682H16.7801C17.8312 10.0682 18.607 9.40909 18.607 8.45455C18.607 7.54662 17.8705 6.87604 16.8604 6.84225L16.7801 6.84091ZM33.6477 4.18182V6.81818H27.9699V9.68182H32.8295V12.3182H27.9699V15.1818H33.6477V17.8182H24.6971V4.18182H33.6477ZM40.7806 4C42.5996 4 44.2512 4.73259 45.3623 5.84112L45.4512 5.93182L43.2295 7.84091C42.4721 7.09091 41.6137 6.65909 40.7553 6.65909C39.9474 6.65909 39.291 7.02273 39.291 7.79545C39.291 10.1591 46.2591 8.90909 46.2591 13.9545C46.2591 16.5 43.8606 18 41.033 18C38.4295 18 36.3373 16.7066 35.3306 15.0455L35.2768 14.9545L38.0287 13.4091C38.5841 14.4773 39.6697 15.1818 41.0583 15.1818C42.2196 15.1818 42.9265 14.6818 42.9265 13.9318C42.9265 11.5455 35.9332 12.6591 35.9332 8.02273C35.9332 5.29545 38.3821 4 40.7806 4ZM55.3713 4C58.2578 4 60.7628 5.47239 62.0417 7.63923L62.1057 7.75L59.2935 9.09091C58.5781 7.79545 57.1227 6.93182 55.3713 6.93182C52.8798 6.93182 50.9803 8.70455 50.9803 11C50.9803 13.2955 52.8798 15.0682 55.3713 15.0682C57.0829 15.0682 58.5118 14.2434 59.2436 12.9967L59.2935 12.9091L62.1057 14.25C60.8476 16.4773 58.3068 18 55.3713 18C51.1777 18 47.7734 14.8636 47.7734 11C47.7734 7.13636 51.1777 4 55.3713 4ZM71.5465 4C75.8406 4 79.281 7.13636 79.281 11C79.281 14.8636 75.8406 18 71.5465 18C67.2774 18 63.812 14.8636 63.812 11C63.812 7.13636 67.2774 4 71.5465 4ZM71.5465 6.93182C69.0102 6.93182 67.0765 8.70455 67.0765 11C67.0765 13.2955 69.0102 15.0682 71.5465 15.0682C74.1079 15.0682 76.0415 13.2955 76.0415 11C76.0415 8.70455 74.1079 6.93182 71.5465 6.93182ZM94.2683 4.18182L99.2244 17.8182H95.9892L95.1402 15.25H90.0005L89.1516 17.8182H85.9163L90.8725 4.18182H94.2683ZM92.5704 7.34091L90.8036 12.75H94.3371L92.5704 7.34091ZM106.502 4C109.164 4 111.493 5.47155 112.704 7.63736L112.766 7.75L110.15 9.09091C109.462 7.79545 108.131 6.93182 106.502 6.93182C104.185 6.93182 102.395 8.70455 102.395 11C102.395 13.2955 104.185 15.0682 106.502 15.0682C108.163 15.0682 109.561 14.1547 110.222 12.7745L110.265 12.6818H106.479V10.3409H113.569V11C113.569 14.8636 110.403 18 106.502 18C102.579 18 99.4351 14.8636 99.4351 11C99.4351 7.13636 102.579 4 106.502 4ZM124.001 4.18182V6.81818H118.746V9.68182H123.244V12.3182H118.746V15.1818H124.001V17.8182H115.718V4.18182H124.001ZM129.403 4.18182L136.172 13.2045V4.18182H139.178V17.8182H136.057L129.311 8.77273V17.8182H126.283V4.18182H129.403ZM148.531 4C151.215 4 153.545 5.47155 154.734 7.63736L154.795 7.75L152.179 9.09091C151.514 7.79545 150.16 6.93182 148.531 6.93182C146.214 6.93182 144.447 8.70455 144.447 11C144.447 13.2955 146.214 15.0682 148.531 15.0682C150.122 15.0682 151.451 14.2442 152.132 12.9988L152.179 12.9091L154.795 14.25C153.625 16.4773 151.261 18 148.531 18C144.63 18 141.464 14.8636 141.464 11C141.464 7.13636 144.63 4 148.531 4ZM158.087 4.18182L161.023 8.79545L163.96 4.18182H167.333L162.538 11.3864V17.8182H159.509V11.4091L154.668 4.18182H158.087Z" fill="#252525"></path>
    <path fill-rule="evenodd" clip-rule="evenodd" d="M176.667 0L178.167 1.66667L176.167 3.5L178.167 5.33333L176.667 7L172.667 3.5L176.667 0ZM182 0L186 3.5L182 7L180.5 5.33333L182.5 3.5L180.5 1.66667L182 0Z" fill="#1969DF"></path>
</svg>