<?xml version="1.0" encoding="UTF-8"?>
<svg width="40px" height="40px" viewBox="0 0 40 40" version="1.1" xmlns="http://www.w3.org/2000/svg" xmlns:xlink="http://www.w3.org/1999/xlink">
    <title>moscow</title>
    <g id="moscow" stroke="none" stroke-width="1" fill="none" fill-rule="evenodd">
        <path d="M20,6 L23.2328189,12.5504065 L30.4616217,13.6008131 L25.2308108,18.6995935 L26.4656378,25.8991869 L21,23.026 L21,26.298 L32,40 L8,40 L19,26.202 L19,23.026 L13.5343622,25.8991869 L14.7691892,18.6995935 L9.53837832,13.6008131 L16.7671811,12.5504065 L20,6 Z M10.1005051,25.4852814 L11.5147186,26.8994949 L8.6862915,29.7279221 L7.27207794,28.3137085 L10.1005051,25.4852814 Z M29.8994949,25.4852814 L32.7279221,28.3137085 L31.3137085,29.7279221 L28.4852814,26.8994949 L29.8994949,25.4852814 Z M37,16 L37,18 L33,18 L33,16 L37,16 Z M7,16 L7,18 L3,18 L3,16 L7,16 Z M31.3137085,4.27207794 L32.7279221,5.6862915 L29.8994949,8.51471863 L28.4852814,7.10050506 L31.3137085,4.27207794 Z M8.6862915,4.27207794 L11.5147186,7.10050506 L10.1005051,8.51471863 L7.27207794,5.6862915 L8.6862915,4.27207794 Z M21,0 L21,4 L19,4 L19,0 L21,0 Z" id="Shape" fill="#252525" fill-rule="nonzero"></path>
    </g>
</svg>