<?xml version="1.0" encoding="UTF-8"?>
<svg width="40px" height="40px" viewBox="0 0 40 40" version="1.1" xmlns="http://www.w3.org/2000/svg" xmlns:xlink="http://www.w3.org/1999/xlink">
    <title>tomsk</title>
    <g id="tomsk" stroke="none" stroke-width="1" fill="none" fill-rule="evenodd">
        <path d="M38.5101952,29.4394978 C38.5101952,27.7285868 39.9699635,27.1789025 39.9699635,24.4650423 C39.8592067,22.2626876 38.1762164,20.4670345 35.9981349,20.2273317 L32.3036306,20.2273317 C32.3036306,20.2273317 32.1306286,20.3453285 31.9118915,20.522319 C30.7711967,19.362323 29.2293971,18.690594 27.6083584,18.6473621 C24.9690504,18.6473621 24.5058142,18.5466312 23.5693264,18.1797056 C22.5594499,17.8475102 21.9721836,16.7906327 22.2196503,15.7507528 L22.3412245,15.5234018 L27.9015066,13.4844087 L26.0585963,12.0037232 C26.132441,11.4118127 26.0172747,10.8116053 25.7297575,10.289928 L28.5892305,7.68832549 L23.9425205,5.66083982 L25.9984943,2.88941349 L21.1630935,2.88941349 C21.1287825,2.77573795 21.1059053,2.69228267 21.1059053,2.69228267 L19.8634558,0 L18.9584035,0 L18.0447928,2.71530716 L17.7802918,2.8894232 L17.3971209,2.8894232 L17.4485873,3.10526689 L11.8568503,6.7702785 L11.7067544,8.14878619 L13.6140314,9.82803977 L16.6822647,7.33865619 L18.9126685,9.33304719 L12.7576088,15.3895956 L6.75840532,10.5906836 L0.280238141,17.3005216 L0.164453204,18.0905015 L1.18100635,19.1783626 L6.67693132,13.5132015 L10.8731704,17.2472865 L10.4385234,17.6746526 L11.2835026,19.4344967 L9.77940799,20.4719778 L7.82929055,18.7495497 L6.49534195,18.7063848 L0,25.0795078 L0.993675972,26.5314103 L6.70265488,21.5655878 L10.5801284,25.5989718 L18.678204,25.5889016 L23.4964397,30.3144479 L17.2255758,36.3594695 L17.4014339,38.5366484 L20.0393138,38.4819664 L20.0393138,36.5637864 L26.2000855,29.7517802 L29.2625971,31.8008435 L22.9903052,38.1667707 L23.0789482,40 L25.7354116,39.9611565 L25.7354116,38.0315176 L31.4758358,32.3476533 L31.4758358,28.0221563 C31.4758358,28.0221563 32.9456387,26.5702538 32.9456387,22.6505453 C32.9353146,22.5139089 32.9123377,22.3785409 32.8770072,22.2462038 C34.5369387,22.5196038 36.0982213,23.9456074 36.0982213,25.5500387 L36.0982213,29.6265876 C36.0982213,32.9433768 40,32.6929916 40,32.6929916 C39.1576616,31.8054544 38.6334136,30.6605812 38.5101952,29.4394978 Z" id="Shape" fill="#252525" fill-rule="nonzero"></path>
    </g>
</svg>